<svg xmlns="http://www.w3.org/2000/svg" width="22.233" height="18.057" viewBox="0 0 22.233 18.057">
  <path id="Icon_awesome-twitter" data-name="Icon awesome-twitter" d="M19.948,7.881c.014.2.014.4.014.593A12.876,12.876,0,0,1,7,21.438a12.877,12.877,0,0,1-7-2.046,9.427,9.427,0,0,0,1.1.056A9.126,9.126,0,0,0,6.757,17.5a4.565,4.565,0,0,1-4.26-3.16,5.746,5.746,0,0,0,.861.071,4.819,4.819,0,0,0,1.2-.155A4.557,4.557,0,0,1,.9,9.785V9.729a4.589,4.589,0,0,0,2.06.578A4.563,4.563,0,0,1,1.552,4.213a12.952,12.952,0,0,0,9.4,4.768,5.144,5.144,0,0,1-.113-1.044A4.561,4.561,0,0,1,18.72,4.82a8.971,8.971,0,0,0,2.892-1.1,4.544,4.544,0,0,1-2,2.511,9.135,9.135,0,0,0,2.624-.705,9.8,9.8,0,0,1-2.285,2.356Z" transform="translate(0 -3.381)" fill="#c6b691"/>
</svg>
