<svg xmlns="http://www.w3.org/2000/svg" width="19.454" height="19.454" viewBox="0 0 19.454 19.454">
  <path id="Icon_awesome-facebook-square" data-name="Icon awesome-facebook-square" d="M17.37,2.25H2.084A2.084,2.084,0,0,0,0,4.334V19.62A2.084,2.084,0,0,0,2.084,21.7h5.96V15.09H5.309V11.977H8.044V9.6c0-2.7,1.607-4.19,4.068-4.19a16.574,16.574,0,0,1,2.411.21V8.274H13.165A1.557,1.557,0,0,0,11.41,9.956v2.021H14.4l-.478,3.113H11.41V21.7h5.96a2.084,2.084,0,0,0,2.084-2.084V4.334A2.084,2.084,0,0,0,17.37,2.25Z" transform="translate(0 -2.25)" fill="#c6b691"/>
</svg>
