<svg xmlns="http://www.w3.org/2000/svg" width="19.465" height="19.46" viewBox="0 0 19.465 19.46">
  <path id="Icon_awesome-instagram" data-name="Icon awesome-instagram" d="M9.729,6.979a4.989,4.989,0,1,0,4.989,4.989A4.982,4.982,0,0,0,9.729,6.979Zm0,8.233a3.244,3.244,0,1,1,3.244-3.244A3.25,3.25,0,0,1,9.729,15.212Zm6.357-8.437a1.164,1.164,0,1,1-1.164-1.164A1.161,1.161,0,0,1,16.087,6.774Zm3.3,1.181a5.759,5.759,0,0,0-1.572-4.078,5.8,5.8,0,0,0-4.078-1.572c-1.607-.091-6.422-.091-8.029,0A5.789,5.789,0,0,0,1.635,3.874,5.778,5.778,0,0,0,.063,7.951c-.091,1.607-.091,6.422,0,8.029a5.759,5.759,0,0,0,1.572,4.078A5.8,5.8,0,0,0,5.713,21.63c1.607.091,6.422.091,8.029,0a5.759,5.759,0,0,0,4.078-1.572,5.8,5.8,0,0,0,1.572-4.078c.091-1.607.091-6.418,0-8.025ZM17.316,17.7a3.284,3.284,0,0,1-1.85,1.85c-1.281.508-4.321.391-5.736.391s-4.46.113-5.736-.391a3.284,3.284,0,0,1-1.85-1.85c-.508-1.281-.391-4.321-.391-5.736s-.113-4.46.391-5.736a3.284,3.284,0,0,1,1.85-1.85c1.281-.508,4.321-.391,5.736-.391s4.46-.113,5.736.391a3.284,3.284,0,0,1,1.85,1.85c.508,1.281.391,4.321.391,5.736S17.824,16.428,17.316,17.7Z" transform="translate(0.005 -2.238)" fill="#c6b691"/>
</svg>
