<svg xmlns="http://www.w3.org/2000/svg" width="186.141" height="16.828" viewBox="0 0 186.141 16.828">
  <path id="Path_69" data-name="Path 69" d="M8.449-16.324l.164.434,1.629,3.844L11.93-8.086l1.77,4.1Q14.719-1.57,15.5.094A8.974,8.974,0,0,0,14.262,0,7.188,7.188,0,0,0,13.1.094q-.34-.973-1.148-3.035T10.605-6.234h-.434L7.441-6.27q-1.512,0-2.883.059Q3.516-3.668,3.34-3.164,3.316-3.141,2.2.094A5.4,5.4,0,0,0,1.395,0,7.39,7.39,0,0,0,.5.094q.6-1.16,1.875-3.961.316-.715.932-2.1t.908-2.051q1.125-2.4,1.8-3.984.551-1.219,1.7-3.82l.246-.5h.48Zm-.82,3.105-.141.3-1.2,2.672L5.133-7.559l-.141.34q1.1.023,2.766.023,1.617,0,2.438-.023l-.117-.34q-.5-1.148-1.125-2.684Q8.32-11.707,7.629-13.219Zm12.012-1.664h-.375q-2.637.105-3.3.152t-1.453.164a3.091,3.091,0,0,0,.094-.727,4.35,4.35,0,0,0-.094-.809q2.555.141,5.859.141,3.551,0,6.434-.141a2.422,2.422,0,0,0-.152.762,3.958,3.958,0,0,0,.094.773,30.048,30.048,0,0,0-4.934-.316q-.152,2.414-.152,6.363,0,6.551.223,8.613A10.543,10.543,0,0,0,20.648,0a8.326,8.326,0,0,0-1.125.094q.246-2,.246-9.281Q19.77-10.8,19.641-14.883ZM37.629.094,37.277.07Q34.488,0,33.961,0,30.3,0,29.016.094q.27-2.672.27-9.387,0-4.324-.176-6.809.773.07,4.3.094l1.945-.023q1.465,0,2.156-.07a6.376,6.376,0,0,0-.07.691q0,.152.07.7a51.387,51.387,0,0,0-5.355-.246q-.469,0-.785.023-.023.129-.129,2.813-.07,2.309-.07,2.637A4.393,4.393,0,0,0,31.2-9q.34.023.867.023a41.764,41.764,0,0,0,4.9-.211,4.215,4.215,0,0,0-.094.762,2.616,2.616,0,0,0,.094.645q-1.77-.164-4.945-.164-.5,0-.844.023v.41l.023,1.2v1.781q0,1.078.023,1.746l.023.633q.012.316.023.492t.012.223v.387q.34.023.832.023,1.453,0,3.082-.094t2.438-.223a5.252,5.252,0,0,0-.07.727A5.225,5.225,0,0,0,37.629.094ZM40.7-16.1a9.025,9.025,0,0,0,1.3.094,5.884,5.884,0,0,0,1.055-.094q-.246,3.3-.246,9.023,0,3.188.176,6.07.48.023,1.055.023a35.4,35.4,0,0,0,5.367-.387,3.68,3.68,0,0,0-.094.8,2.689,2.689,0,0,0,.094.668Q47.93,0,44.824,0,42.387,0,40.7.094q.211-2.555.211-8.062,0-3.34-.035-4.752T40.7-16.1Zm11.227,0a8.2,8.2,0,0,0,1.172.094,8.272,8.272,0,0,0,1.184-.094q-.246,2.93-.246,7.313,0,6.141.246,8.883A10.446,10.446,0,0,0,53.074,0a9.05,9.05,0,0,0-1.148.094q.211-2.848.211-9.328Q52.137-13.418,51.926-16.1ZM66.914.094,66.563.07Q63.773,0,63.246,0,59.59,0,58.3.094q.27-2.672.27-9.387,0-4.324-.176-6.809.773.07,4.3.094l1.945-.023q1.465,0,2.156-.07a6.376,6.376,0,0,0-.07.691q0,.152.07.7a51.387,51.387,0,0,0-5.355-.246q-.469,0-.785.023-.023.129-.129,2.813-.07,2.309-.07,2.637A4.393,4.393,0,0,0,60.48-9q.34.023.867.023a41.764,41.764,0,0,0,4.9-.211,4.215,4.215,0,0,0-.094.762,2.616,2.616,0,0,0,.094.645q-1.77-.164-4.945-.164-.5,0-.844.023v.41l.023,1.2v1.781q0,1.078.023,1.746l.023.633q.012.316.023.492t.012.223v.387q.34.023.832.023,1.453,0,3.082-.094t2.438-.223a5.252,5.252,0,0,0-.07.727A5.225,5.225,0,0,0,66.914.094Zm6.117-7.875h-.914q0,5.742.223,7.875A10.651,10.651,0,0,0,71.086,0a7.308,7.308,0,0,0-1.1.094q.246-3.773.246-8.707,0-4.641-.246-7.488,1.031.094,1.922.094.316,0,1.652-.047,1.688-.047,1.922-.047a6.412,6.412,0,0,1,3.34.715,3.1,3.1,0,0,1,1.107,1.23,3.657,3.657,0,0,1,.4,1.7,3.859,3.859,0,0,1-.645,2.18,4.642,4.642,0,0,1-1.828,1.57,8.614,8.614,0,0,1-2.4.738l.234.293,1.547,1.969q2.285,2.918,3.135,3.949T82.031.094Q81.082,0,80.52,0a11.18,11.18,0,0,0-1.348.094l-.234-.328A78.17,78.17,0,0,0,73.031-7.781Zm-.914-.9a9.684,9.684,0,0,0,1.348.094,5.615,5.615,0,0,0,3.475-.937,3.178,3.178,0,0,0,1.225-2.684A2.789,2.789,0,0,0,77.2-14.5a4.359,4.359,0,0,0-2.818-.791,15.25,15.25,0,0,0-2.109.176Q72.117-11.766,72.117-8.684ZM103.793-2.52l.129.07-.047.223-.129.5-.117.5-.047.188A9.265,9.265,0,0,1,98.2.41a8.228,8.228,0,0,1-6.07-2.262,8.118,8.118,0,0,1-2.273-6.023,8.18,8.18,0,0,1,2.432-6.246,9.209,9.209,0,0,1,6.592-2.3,11.7,11.7,0,0,1,5.063.984,7.845,7.845,0,0,0-.48,1.828l-.176.07a6.08,6.08,0,0,0-4.629-1.992,6.186,6.186,0,0,0-2.7.592,5.971,5.971,0,0,0-2.121,1.693,8.15,8.15,0,0,0-1.617,5.3,7.96,7.96,0,0,0,1.711,5.4A5.836,5.836,0,0,0,98.613-.48,7.712,7.712,0,0,0,103.793-2.52ZM106.934-16.1a8.563,8.563,0,0,0,1.172.094,8.627,8.627,0,0,0,1.184-.094q-.34,3.316-.34,8.473a18.731,18.731,0,0,0,.176,2.965,5.276,5.276,0,0,0,.621,1.781,4.59,4.59,0,0,0,4.266,2.191,5.613,5.613,0,0,0,3.217-.891,4.127,4.127,0,0,0,1.729-2.449,12.053,12.053,0,0,0,.311-2.221q.076-1.295.076-4.377,0-3.363-.141-5.473a7.343,7.343,0,0,0,.926.094,4.847,4.847,0,0,0,.82-.094q-.105.633-.229,2.965t-.158,4.207q-.059,2.156-.094,2.842a12.056,12.056,0,0,1-.141,1.33,6.906,6.906,0,0,1-.773,2.3A5.29,5.29,0,0,1,118.043-.82,7.314,7.314,0,0,1,113.648.41a9.324,9.324,0,0,1-2.877-.422,6,6,0,0,1-2.186-1.207,4.575,4.575,0,0,1-1.254-1.893,8.978,8.978,0,0,1-.375-2.865q0-1.078.07-3.48.023-.8.023-2.109Q107.051-14.262,106.934-16.1Zm20.848,8.32h-.914q0,5.742.223,7.875A10.651,10.651,0,0,0,125.836,0a7.308,7.308,0,0,0-1.1.094q.246-3.773.246-8.707,0-4.641-.246-7.488,1.031.094,1.922.094.316,0,1.652-.047Q130-16.1,130.23-16.1a6.412,6.412,0,0,1,3.34.715,3.1,3.1,0,0,1,1.107,1.23,3.657,3.657,0,0,1,.4,1.7,3.859,3.859,0,0,1-.645,2.18,4.642,4.642,0,0,1-1.828,1.57,8.614,8.614,0,0,1-2.4.738l.234.293,1.547,1.969q2.285,2.918,3.135,3.949T136.781.094Q135.832,0,135.27,0a11.18,11.18,0,0,0-1.348.094l-.234-.328A78.17,78.17,0,0,0,127.781-7.781Zm-.914-.9a9.684,9.684,0,0,0,1.348.094,5.615,5.615,0,0,0,3.475-.937,3.178,3.178,0,0,0,1.225-2.684,2.789,2.789,0,0,0-.967-2.291,4.359,4.359,0,0,0-2.818-.791,15.25,15.25,0,0,0-2.109.176Q126.867-11.766,126.867-8.684Zm15.48-6.2h-.375q-2.637.105-3.3.152t-1.453.164a3.091,3.091,0,0,0,.094-.727,4.35,4.35,0,0,0-.094-.809q2.555.141,5.859.141,3.551,0,6.434-.141a2.422,2.422,0,0,0-.152.762,3.958,3.958,0,0,0,.094.773,30.048,30.048,0,0,0-4.934-.316q-.152,2.414-.152,6.363,0,6.551.223,8.613A10.543,10.543,0,0,0,143.355,0a8.326,8.326,0,0,0-1.125.094q.246-2,.246-9.281Q142.477-10.8,142.348-14.883Zm14.18-1.441.164.434,1.629,3.844,1.688,3.961,1.77,4.1q1.02,2.414,1.8,4.078A8.974,8.974,0,0,0,162.34,0a7.188,7.188,0,0,0-1.16.094q-.34-.973-1.148-3.035t-1.348-3.293h-.434l-2.73-.035q-1.512,0-2.883.059-1.043,2.543-1.219,3.047-.023.023-1.137,3.258A5.4,5.4,0,0,0,149.473,0a7.39,7.39,0,0,0-.891.094q.6-1.16,1.875-3.961.316-.715.932-2.1t.908-2.051q1.125-2.4,1.8-3.984.551-1.219,1.7-3.82l.246-.5h.48Zm-.82,3.105-.141.3-1.2,2.672-1.16,2.684-.141.34q1.1.023,2.766.023,1.617,0,2.438-.023l-.117-.34q-.5-1.148-1.125-2.684Q156.4-11.707,155.707-13.219ZM166.066-16.1a8.2,8.2,0,0,0,1.172.094,8.272,8.272,0,0,0,1.184-.094q-.246,2.93-.246,7.313,0,6.141.246,8.883A10.446,10.446,0,0,0,167.215,0a9.05,9.05,0,0,0-1.148.094q.211-2.848.211-9.328Q166.277-13.418,166.066-16.1Zm6.809-.316h.387q.176.188.393.428l.691.768q.475.527,1.1,1.207,2.18,2.332,2.285,2.449.422.434,2.344,2.473,1.371,1.371,2.449,2.637,1.488,1.594,2.566,2.637l.023-.6q.047-3.234.047-4.605,0-5.1-.164-7.078a6.614,6.614,0,0,0,.844.094,4.819,4.819,0,0,0,.809-.094,110.589,110.589,0,0,0-.422,11.754q0,3.41.047,4.758h-.363q-1.254-1.535-3.99-4.553t-5.678-6.076q-1.008-1.031-1.969-2.074l-.293-.281-.023.434q-.047,4.922-.047,5.637,0,3.832.211,6.6A4.27,4.27,0,0,0,173.262,0a4.126,4.126,0,0,0-.82.094q.281-1.98.387-8.32.07-3.141.07-5.789Q172.9-15.75,172.875-16.418Z" transform="translate(-0.504 16.418)"/>
</svg>
